<svg fill="none" height="20" viewBox="0 0 20 20" width="20" xmlns="http://www.w3.org/2000/svg"><g clip-rule="evenodd" fill="#4a5568" fill-rule="evenodd"><path d="m5 2c.55228 0 1 .44772 1 1v1h1c.55228 0 1 .44772 1 1s-.44772 1-1 1h-1v1c0 .55228-.44772 1-1 1s-1-.44772-1-1v-1h-1c-.55228 0-1-.44772-1-1s.44772-1 1-1h1v-1c0-.55228.44772-1 1-1zm0 10c.55228 0 1 .4477 1 1v1h1c.55228 0 1 .4477 1 1s-.44772 1-1 1h-1v1c0 .5523-.44772 1-1 1s-1-.4477-1-1v-1h-1c-.55228 0-1-.4477-1-1s.44772-1 1-1h1v-1c0-.5523.44772-1 1-1z"/><path d="m11.9999 2c.4538 0 .8506.30548.9668.74411l1.1792 4.45482 3.3538 1.93488c.3095.1786.5002.50881.5002.86619 0 .3574-.1907.6876-.5002.8662l-3.3538 1.9349-1.1792 4.4548c-.1162.4386-.513.7441-.9668.7441-.4537 0-.8506-.3055-.9667-.7441l-1.17918-4.4548-3.35375-1.9349c-.30955-.1786-.50027-.5088-.50027-.8662 0-.35738.19072-.68759.50027-.86618l3.35375-1.93489 1.17918-4.45482c.1161-.43863.513-.74411.9667-.74411z"/></g></svg>